<svg width="129" height="43" viewBox="0 0 129 43" fill="none" xmlns="http://www.w3.org/2000/svg">
<g clip-path="url(#clip0_830_75648)">
<path d="M120.796 0.74707H7.98524C4.16474 0.74707 1.06761 3.8442 1.06761 7.66469V35.3352C1.06761 39.1557 4.16474 42.2528 7.98524 42.2528H120.796C124.616 42.2528 127.713 39.1557 127.713 35.3352V7.66469C127.713 3.8442 124.616 0.74707 120.796 0.74707Z" fill="#0C0D10"/>
<path d="M87.3006 20.6487V23.088H85.7713V24.6865H87.2995V30.1206C87.2995 31.9766 88.1382 32.7173 90.2496 32.7173C90.6211 32.7173 90.9733 32.6748 91.283 32.6216V31.0401C91.018 31.0656 90.8509 31.0837 90.5593 31.0837C89.6132 31.0837 89.1982 30.6421 89.1982 29.6353V24.6876H91.2841V23.0891H89.1982V20.6487H87.3006ZM96.6628 32.8493C99.4724 32.8493 101.194 30.9677 101.194 27.8495C101.194 24.7482 99.4639 22.8581 96.6628 22.8581C93.8532 22.8581 92.1227 24.7482 92.1227 27.8495C92.1227 30.9677 93.8447 32.8493 96.6628 32.8493ZM96.6628 31.1625C95.0111 31.1625 94.0831 29.9524 94.0831 27.8495C94.0831 25.7646 95.0111 24.545 96.6628 24.545C98.306 24.545 99.2426 25.7646 99.2426 27.8495C99.2426 29.9428 98.306 31.1625 96.6628 31.1625ZM102.668 32.6641H104.568V26.9842C104.568 25.6326 105.584 24.7227 107.024 24.7227C107.36 24.7227 107.925 24.7844 108.084 24.8366V22.9635C107.881 22.9103 107.518 22.8847 107.236 22.8847C105.981 22.8847 104.913 23.5733 104.639 24.5194H104.498V23.0433H102.668V32.6641ZM112.8 24.4747C114.205 24.4747 115.123 25.4549 115.168 26.9651H110.309C110.415 25.4645 111.395 24.4747 112.8 24.4747ZM115.158 30.0663C114.805 30.8177 114.02 31.2327 112.87 31.2327C111.352 31.2327 110.37 30.1642 110.309 28.4763V28.3699H117.103V27.7079C117.103 24.6865 115.485 22.8581 112.809 22.8581C110.097 22.8581 108.374 24.81 108.374 27.8846C108.374 30.9592 110.062 32.8493 112.818 32.8493C115.018 32.8493 116.555 31.7893 116.988 30.0663H115.158ZM74.8446 29.1117C74.9915 31.4743 76.9604 32.9845 79.8892 32.9845C83.0213 32.9845 84.9805 31.4009 84.9805 28.8733C84.9805 26.8863 83.8631 25.7869 81.1535 25.1558L79.6976 24.7993C77.9767 24.3949 77.2807 23.8553 77.2807 22.9124C77.2807 21.7226 78.3609 20.9435 79.9818 20.9435C81.5196 20.9435 82.5817 21.7045 82.7744 22.922H84.7698C84.6506 20.6977 82.6913 19.1311 80.0084 19.1311C77.1242 19.1311 75.2022 20.6966 75.2022 23.0497C75.2022 24.9909 76.2909 26.1445 78.6812 26.7033L80.384 27.1151C82.1326 27.527 82.9021 28.1315 82.9021 29.1393C82.9021 30.31 81.6931 31.1614 80.0456 31.1614C78.279 31.1614 77.0519 30.3653 76.8773 29.1117H74.8446ZM55.1698 22.8847C53.8619 22.8847 52.7316 23.5382 52.1474 24.6344H52.0069V23.0433H50.1785V35.8622H52.0782V31.2061H52.2272C52.7316 32.2225 53.8182 32.8238 55.1869 32.8238C57.6165 32.8238 59.1629 30.906 59.1629 27.8495C59.1629 24.7929 57.6165 22.8847 55.1698 22.8847ZM54.6303 31.1178C53.0403 31.1178 52.042 29.8641 52.042 27.858C52.042 25.8444 53.0403 24.5897 54.6388 24.5897C56.2469 24.5897 57.21 25.8178 57.21 27.8495C57.21 29.8907 56.2469 31.1178 54.6303 31.1178ZM65.8091 22.8847C64.5012 22.8847 63.3709 23.5382 62.7867 24.6344H62.6462V23.0433H60.8178V35.8622H62.7164V31.2061H62.8665C63.3709 32.2225 64.4575 32.8238 65.8262 32.8238C68.2559 32.8238 69.8022 30.906 69.8022 27.8495C69.8022 24.7929 68.2559 22.8847 65.8091 22.8847ZM65.2696 31.1178C63.6796 31.1178 62.6813 29.8641 62.6813 27.858C62.6813 25.8444 63.6796 24.5897 65.2781 24.5897C66.8862 24.5897 67.8493 25.8178 67.8493 27.8495C67.8493 29.8907 66.8862 31.1178 65.2696 31.1178ZM46.7708 32.6641H48.9493L44.1804 19.4515H41.9742L37.2021 32.6641H39.3082L40.5257 29.1574H45.5618L46.7708 32.6641ZM42.9714 21.8513H43.1268L45.0403 27.4355H41.0483L42.9703 21.8503L42.9714 21.8513ZM38.476 9.48476V15.8596H40.778C42.6766 15.8596 43.777 14.6889 43.777 12.653C43.777 10.6469 42.6681 9.48583 40.778 9.48583H38.476V9.48476ZM39.4658 10.3872H40.6673C41.988 10.3872 42.7703 11.2259 42.7703 12.6658C42.7703 14.1281 42.0008 14.9582 40.6673 14.9582H39.4658V10.3872ZM47.1454 15.9522C48.5502 15.9522 49.4122 15.0114 49.4122 13.4523C49.4122 11.9017 48.5459 10.9566 47.1454 10.9566C45.7406 10.9566 44.8753 11.9017 44.8753 13.4523C44.8753 15.0114 45.7363 15.9533 47.1454 15.9533V15.9522ZM47.1454 15.1083C46.3195 15.1083 45.8555 14.5038 45.8555 13.4523C45.8555 12.4093 46.3195 11.8006 47.1454 11.8006C47.967 11.8006 48.4353 12.4104 48.4353 13.4523C48.4353 14.4995 47.967 15.1083 47.1454 15.1083ZM56.746 11.0492H55.7967L54.94 14.7209H54.8655L53.8757 11.0492H52.9658L51.976 14.7209H51.9047L51.0437 11.0492H50.0806L51.4066 15.8596H52.3836L53.3734 12.3167H53.4479L54.4419 15.8596H55.4263L56.746 11.0492ZM57.84 15.8596H58.7893V13.0457C58.7893 12.2954 59.2363 11.8272 59.9387 11.8272C60.6411 11.8272 60.9764 12.2103 60.9764 12.984V15.8596H61.9257V12.7456C61.9257 11.6016 61.334 10.9566 60.2601 10.9566C59.5364 10.9566 59.0586 11.2791 58.8245 11.8133H58.7542V11.0492H57.839L57.84 15.8596ZM63.422 15.8596H64.3713V9.17188H63.421L63.422 15.8596ZM67.943 15.9522C69.3478 15.9522 70.2088 15.0114 70.2088 13.4523C70.2088 11.9017 69.3425 10.9566 67.9419 10.9566C66.5371 10.9566 65.6719 11.9017 65.6719 13.4523C65.6719 15.0114 66.5339 15.9533 67.943 15.9533V15.9522ZM67.943 15.1083C67.1171 15.1083 66.6531 14.5038 66.6531 13.4523C66.6531 12.4093 67.1171 11.8006 67.943 11.8006C68.7646 11.8006 69.2328 12.4104 69.2328 13.4523C69.2328 14.4995 68.7646 15.1083 67.943 15.1083ZM73.0386 15.1391C72.5214 15.1391 72.1457 14.888 72.1457 14.4548C72.1457 14.0312 72.4458 13.8056 73.1088 13.7609L74.2838 13.6864V14.0887C74.2838 14.6847 73.7538 15.1391 73.0386 15.1391ZM72.7949 15.9394C73.427 15.9394 73.9528 15.6649 74.2391 15.1838H74.3146V15.8596H75.2299V12.5732C75.2299 11.5579 74.5488 10.9566 73.343 10.9566C72.2521 10.9566 71.4741 11.4866 71.3773 12.3125H72.2957C72.4022 11.9719 72.7683 11.7782 73.2983 11.7782C73.9475 11.7782 74.2838 12.0656 74.2838 12.5732V12.9883L72.9811 13.0628C71.8371 13.1341 71.1921 13.6332 71.1921 14.4995C71.1921 15.3786 71.8679 15.9394 72.7949 15.9394ZM78.4514 15.9394C79.1144 15.9394 79.6753 15.6255 79.9626 15.0997H80.0371V15.8596H80.947V9.17188H79.9977V11.8133H79.9264C79.6667 11.2833 79.1101 10.9694 78.4514 10.9694C77.2371 10.9694 76.4548 11.9325 76.4548 13.4523C76.4548 14.9763 77.2285 15.9394 78.4514 15.9394ZM78.7206 11.8219C79.5167 11.8219 80.0147 12.454 80.0147 13.4565C80.0147 14.4633 79.5209 15.087 78.7206 15.087C77.9171 15.087 77.4361 14.4729 77.4361 13.4523C77.4361 12.4413 77.9214 11.8219 78.7206 11.8219ZM87.1059 15.9522C88.5107 15.9522 89.3716 15.0114 89.3716 13.4523C89.3716 11.9017 88.5053 10.9566 87.1048 10.9566C85.7 10.9566 84.8347 11.9017 84.8347 13.4523C84.8347 15.0114 85.6968 15.9533 87.1059 15.9533V15.9522ZM87.1059 15.1083C86.28 15.1083 85.816 14.5038 85.816 13.4523C85.816 12.4093 86.28 11.8006 87.1059 11.8006C87.9275 11.8006 88.3957 12.4104 88.3957 13.4523C88.3957 14.4995 87.9275 15.1083 87.1059 15.1083ZM90.6285 15.8596H91.5778V13.0457C91.5778 12.2954 92.0248 11.8272 92.7272 11.8272C93.4296 11.8272 93.7649 12.2103 93.7649 12.984V15.8596H94.7142V12.7456C94.7142 11.6016 94.1224 10.9566 93.0497 10.9566C92.3249 10.9566 91.8471 11.2791 91.6129 11.8133H91.5427V11.0492H90.6285V15.8596ZM99.0882 9.85193V11.0716H98.3241V11.8708H99.0882V14.5878C99.0882 15.5148 99.5076 15.8862 100.563 15.8862C100.748 15.8862 100.925 15.8649 101.081 15.8373V15.0465C100.947 15.0604 100.863 15.0689 100.719 15.0689C100.245 15.0689 100.038 14.8475 100.038 14.3452V11.8708H101.081V11.0716H100.038V9.85193H99.0882ZM102.354 15.8596H103.305V13.05C103.305 12.3221 103.738 11.8314 104.515 11.8314C105.185 11.8314 105.544 12.2199 105.544 12.9883V15.8596H106.493V12.7541C106.493 11.6101 105.862 10.9609 104.837 10.9609C104.114 10.9609 103.605 11.2833 103.371 11.8229H103.296V9.17294H102.354V15.8596ZM109.919 11.7644C110.622 11.7644 111.081 12.255 111.104 13.0096H108.674C108.727 12.2593 109.218 11.7644 109.919 11.7644ZM111.099 14.5612C110.923 14.9359 110.529 15.1444 109.955 15.1444C109.195 15.1444 108.705 14.6091 108.674 13.7662V13.713H112.071V13.382C112.071 11.8708 111.262 10.9566 109.924 10.9566C108.568 10.9566 107.707 11.9325 107.707 13.4704C107.707 15.0072 108.55 15.9522 109.929 15.9522C111.028 15.9522 111.796 15.4222 112.014 14.5612H111.099ZM26.897 21.8194C26.9125 20.9321 27.1502 20.0628 27.5884 19.291C28.0266 18.5193 28.6513 17.8697 29.4054 17.4017C28.9209 16.7186 28.2858 16.1561 27.549 15.7579C26.8123 15.3596 25.9938 15.1362 25.1569 15.1051C23.37 14.9178 21.6374 16.1746 20.7264 16.1746C19.7984 16.1746 18.3957 15.1242 16.8866 15.1551C15.911 15.1911 14.961 15.477 14.1274 15.9853C13.2939 16.4937 12.6049 17.2075 12.1262 18.0584C10.068 21.6215 11.6037 26.8597 13.5747 29.7396C14.5612 31.1497 15.7138 32.7248 17.2229 32.6695C18.699 32.6077 19.2503 31.7276 21.0329 31.7276C22.7975 31.7276 23.3147 32.6695 24.8536 32.6343C26.4383 32.6088 27.4355 31.2167 28.3869 29.7928C29.0962 28.788 29.6422 27.6774 30.0046 26.5021C29.0874 26.1082 28.305 25.4554 27.7531 24.6238C27.2012 23.7921 26.9037 22.8176 26.897 21.8194ZM23.9894 13.2107C24.8531 12.1741 25.2787 10.8418 25.1761 9.49647C23.8564 9.63511 22.6374 10.2659 21.762 11.2631C20.9026 12.2491 20.4657 13.5336 20.5455 14.839C21.2047 14.8419 21.8562 14.6972 22.4522 14.4155C23.0481 14.1337 23.5734 13.722 23.9894 13.2107Z" fill="white"/>
<path d="M120.796 0.74707H7.98524C4.16474 0.74707 1.06761 3.8442 1.06761 7.66469V35.3352C1.06761 39.1557 4.16474 42.2528 7.98524 42.2528H120.796C124.616 42.2528 127.713 39.1557 127.713 35.3352V7.66469C127.713 3.8442 124.616 0.74707 120.796 0.74707Z" stroke="#737373" stroke-width="0.864286"/>
</g>
<defs>
<clipPath id="clip0_830_75648">
<rect width="127.71" height="42.57" fill="white" transform="translate(0.535492 0.214844)"/>
</clipPath>
</defs>
</svg>
