<svg width="144" height="43" viewBox="0 0 144 43" fill="none" xmlns="http://www.w3.org/2000/svg">
<g clip-path="url(#clip0_830_75652)">
<path d="M138.598 0.74707H5.56672C2.92176 0.74707 0.777592 2.89123 0.777592 5.53619V37.4637C0.777592 40.1087 2.92176 42.2528 5.56672 42.2528H138.598C141.243 42.2528 143.387 40.1087 143.387 37.4637V5.53619C143.387 2.89123 141.243 0.74707 138.598 0.74707Z" fill="black"/>
<path d="M72.7602 23.3639C70.2571 23.3639 68.217 25.2689 68.217 27.8902C68.217 30.4976 70.2571 32.4164 72.7602 32.4164C75.2644 32.4164 77.3046 30.4965 77.3046 27.8902C77.3035 25.2679 75.2634 23.3639 72.7602 23.3639ZM72.7602 30.6349C71.3884 30.6349 70.206 29.5036 70.206 27.8912C70.206 26.2629 71.3895 25.1476 72.7602 25.1476C74.1321 25.1476 75.3144 26.2619 75.3144 27.8912C75.3144 29.5025 74.1321 30.6349 72.7602 30.6349ZM62.8478 23.3639C60.3447 23.3639 58.3045 25.2689 58.3045 27.8902C58.3045 30.4976 60.3447 32.4164 62.8478 32.4164C65.352 32.4164 67.3922 30.4965 67.3922 27.8902C67.3922 25.2679 65.352 23.3639 62.8478 23.3639ZM62.8478 30.6349C61.476 30.6349 60.2936 29.5036 60.2936 27.8912C60.2936 26.2629 61.4771 25.1476 62.8478 25.1476C64.2196 25.1476 65.402 26.2619 65.402 27.8912C65.4031 29.5025 64.2196 30.6349 62.8478 30.6349ZM51.058 24.7538V26.6737H55.6535C55.5162 27.7539 55.1565 28.5425 54.6073 29.0906C53.939 29.759 52.8928 30.4965 51.058 30.4965C48.2293 30.4965 46.0178 28.2158 46.0178 25.3881C46.0178 22.5583 48.2293 20.2776 51.058 20.2776C52.5842 20.2776 53.6985 20.8778 54.5211 21.6505L55.8759 20.2946C54.7265 19.1984 53.2014 18.3577 51.058 18.3577C47.1831 18.3577 43.9254 21.5121 43.9254 25.387C43.9254 29.262 47.1831 32.4164 51.058 32.4164C53.1493 32.4164 54.7276 31.73 55.9611 30.4444C57.2296 29.1758 57.6245 27.3921 57.6245 25.9532C57.6245 25.5073 57.5904 25.0954 57.5212 24.7528L51.058 24.7538ZM99.2771 26.2448C98.9003 25.2338 97.751 23.3639 95.4022 23.3639C93.0704 23.3639 91.1324 25.1987 91.1324 27.8902C91.1324 30.4273 93.0534 32.4164 95.6246 32.4164C97.6988 32.4164 98.8993 31.1478 99.3974 30.4103L97.8542 29.3812C97.3402 30.1368 96.6367 30.6327 95.6246 30.6327C94.6135 30.6327 93.893 30.1698 93.4301 29.2609L99.4825 26.7578L99.2771 26.2448ZM93.1044 27.7539C93.0534 26.0043 94.4592 25.1146 95.4713 25.1146C96.2599 25.1146 96.9283 25.5084 97.1518 26.0735L93.1044 27.755V27.7539ZM88.1844 32.1429H90.1724V18.8398H88.1844V32.1429ZM84.9257 24.376H84.8576C84.4116 23.8439 83.5539 23.365 82.4747 23.365C80.211 23.365 78.1368 25.353 78.1368 27.9093C78.1368 30.4454 80.211 32.4175 82.4747 32.4175C83.5549 32.4175 84.4116 31.9386 84.8576 31.3894H84.9257V32.0407C84.9257 33.7723 83.9998 34.6982 82.5088 34.6982C81.2913 34.6982 80.5367 33.8255 80.2281 33.0869L78.4965 33.8074C78.9935 35.0068 80.3132 36.4819 82.5088 36.4819C84.8405 36.4819 86.8126 35.11 86.8126 31.7672V23.6395H84.9267L84.9257 24.376ZM82.6461 30.6349C81.2742 30.6349 80.1259 29.4855 80.1259 27.9083C80.1259 26.3129 81.2742 25.1476 82.6461 25.1476C83.9998 25.1476 85.063 26.3129 85.063 27.9083C85.063 29.4855 83.9998 30.6349 82.6461 30.6349ZM108.594 18.8398H103.835V32.1429H105.82V27.1026H108.592C110.793 27.1026 112.958 25.5094 112.958 22.9712C112.958 20.433 110.794 18.8398 108.594 18.8398ZM108.645 25.2519H105.82V20.6916H108.645C110.129 20.6916 110.972 21.9208 110.972 22.9723C110.972 24.0025 110.129 25.2519 108.645 25.2519ZM120.918 23.3416C119.48 23.3416 117.991 23.9748 117.375 25.3785L119.137 26.1139C119.514 25.3796 120.216 25.138 120.952 25.138C121.979 25.138 123.023 25.7553 123.04 26.8493V26.9877C122.68 26.7812 121.909 26.4736 120.969 26.4736C119.069 26.4736 117.134 27.5177 117.134 29.4684C117.134 31.2489 118.692 32.3951 120.438 32.3951C121.772 32.3951 122.509 31.796 122.97 31.0936H123.039V32.1206H124.956V27.0196C124.957 24.6591 123.193 23.3416 120.918 23.3416ZM120.677 30.6327C120.028 30.6327 119.12 30.3071 119.12 29.5025C119.12 28.4755 120.25 28.0817 121.226 28.0817C122.098 28.0817 122.51 28.2701 123.04 28.5266C122.967 29.1041 122.688 29.6358 122.253 30.0232C121.819 30.4106 121.259 30.6275 120.677 30.6338V30.6327ZM131.94 23.6321L129.664 29.4003H129.595L127.233 23.6321H125.094L128.637 31.6938L126.617 36.1785H128.688L134.148 23.6321H131.94ZM114.054 32.1429H116.039V18.8398H114.054V32.1429ZM50.71 11.1165C50.71 12.0084 50.4461 12.7182 49.9172 13.2482C49.3169 13.8782 48.5337 14.1933 47.5716 14.1933C46.6499 14.1933 45.8656 13.874 45.2217 13.2354C44.5768 12.5958 44.2532 11.804 44.2532 10.859C44.2532 9.91179 44.5768 9.12105 45.2217 8.4825C45.8656 7.84289 46.6499 7.52361 47.5716 7.52361C48.0292 7.52361 48.4655 7.61301 48.8806 7.78968C49.2978 7.96953 49.6309 8.20686 49.8799 8.50272L49.3191 9.06571C48.8966 8.56019 48.3144 8.30797 47.5705 8.30797C46.8979 8.30797 46.3168 8.54423 45.8251 9.01676C45.3356 9.48928 45.0908 10.1023 45.0908 10.8579C45.0908 11.6125 45.3356 12.2265 45.8251 12.6991C46.0542 12.9275 46.3266 13.1079 46.6263 13.2296C46.926 13.3513 47.247 13.4119 47.5705 13.4079C48.2835 13.4079 48.8785 13.1705 49.3542 12.6948C49.6628 12.3851 49.8416 11.9541 49.8895 11.4017H47.5694V10.6344H50.6643C50.6962 10.8015 50.71 10.9622 50.71 11.1165ZM55.6162 8.44951H52.7087V10.4737H55.331V11.241H52.7087V13.2652H55.6162V14.0507H51.8882V7.66516H55.6162V8.44951ZM59.0761 14.0507H58.2545V8.44951H56.4719V7.66516H60.8598V8.44951H59.0761V14.0507ZM64.0345 14.0507V7.66516H64.8539V14.0507H64.0345ZM68.4937 14.0507H67.6731V8.44951H65.8884V7.66516H70.2763V8.44951H68.4926L68.4937 14.0507ZM78.5827 13.2259C77.9548 13.8708 77.1747 14.1933 76.2414 14.1933C75.308 14.1933 74.528 13.8708 73.9011 13.2259C73.2732 12.5809 72.9603 11.7913 72.9603 10.8579C72.9603 9.92456 73.2732 9.13489 73.9011 8.48995C74.529 7.84502 75.308 7.52148 76.2425 7.52148C77.1694 7.52148 77.9485 7.84608 78.5785 8.49421C79.2085 9.14234 79.5235 9.92988 79.5235 10.8579C79.5235 11.7913 79.2096 12.5809 78.5827 13.2259ZM74.5067 12.6905C74.7307 12.9233 75.0005 13.1072 75.299 13.2307C75.5975 13.3541 75.9184 13.4144 76.2414 13.4079C76.9257 13.4079 77.5047 13.1684 77.9761 12.6905C78.4487 12.2116 78.686 11.6008 78.686 10.8579C78.686 10.1151 78.4487 9.50418 77.9761 9.02527C77.7521 8.79244 77.4824 8.60852 77.1838 8.48507C76.8853 8.36161 76.5644 8.30132 76.2414 8.30797C75.5571 8.30797 74.9792 8.54742 74.5067 9.02527C74.0352 9.50418 73.7979 10.1151 73.7979 10.8579C73.7979 11.6008 74.0352 12.2116 74.5067 12.6905ZM80.6761 14.0507V7.66516H81.6744L84.7767 12.632H84.8129L84.7767 11.4017V7.66516H85.5983V14.0507H84.7405L81.4945 8.84222H81.4594L81.4935 10.0725V14.0507H80.6761Z" fill="white"/>
<path d="M50.7101 11.1165C50.7101 12.0084 50.4462 12.7182 49.9172 13.2482C49.317 13.8783 48.5337 14.1933 47.5716 14.1933C46.65 14.1933 45.8656 13.874 45.2217 13.2354C44.5768 12.5958 44.2533 11.804 44.2533 10.859C44.2533 9.91179 44.5768 9.12105 45.2217 8.4825C45.8656 7.84289 46.65 7.52361 47.5716 7.52361C48.0292 7.52361 48.4656 7.61301 48.8806 7.78968C49.2978 7.96953 49.6309 8.20686 49.88 8.50272L49.3191 9.06571C48.8966 8.56019 48.3145 8.30797 47.5705 8.30797C46.8979 8.30797 46.3169 8.54423 45.8252 9.01676C45.3356 9.48928 45.0908 10.1023 45.0908 10.8579C45.0908 11.6125 45.3356 12.2265 45.8252 12.6991C46.0542 12.9275 46.3266 13.1079 46.6263 13.2296C46.9261 13.3513 47.2471 13.4119 47.5705 13.4079C48.2836 13.4079 48.8785 13.1705 49.3542 12.6948C49.6629 12.3851 49.8417 11.9541 49.8895 11.4017H47.5695V10.6344H50.6643C50.6962 10.8015 50.7101 10.9622 50.7101 11.1165ZM55.6163 8.44951H52.7087V10.4737H55.3311V11.241H52.7087V13.2652H55.6163V14.0507H51.8882V7.66516H55.6163V8.44951ZM59.0762 14.0507H58.2546V8.44951H56.4719V7.66516H60.8598V8.44951H59.0762V14.0507ZM64.0345 14.0507V7.66516H64.854V14.0507H64.0345ZM68.4937 14.0507H67.6732V8.44951H65.8884V7.66516H70.2763V8.44951H68.4926L68.4937 14.0507ZM78.5828 13.2259C77.9549 13.8708 77.1748 14.1933 76.2414 14.1933C75.3081 14.1933 74.528 13.8708 73.9012 13.2259C73.2733 12.5809 72.9604 11.7913 72.9604 10.8579C72.9604 9.92456 73.2733 9.13489 73.9012 8.48995C74.5291 7.84502 75.3081 7.52148 76.2425 7.52148C77.1695 7.52148 77.9485 7.84608 78.5785 8.49421C79.2086 9.14234 79.5236 9.92988 79.5236 10.8579C79.5236 11.7913 79.2096 12.5809 78.5828 13.2259ZM74.5067 12.6905C74.7307 12.9233 75.0005 13.1072 75.299 13.2307C75.5976 13.3541 75.9184 13.4144 76.2414 13.4079C76.9258 13.4079 77.5047 13.1684 77.9762 12.6905C78.4487 12.2116 78.686 11.6008 78.686 10.8579C78.686 10.1151 78.4487 9.50418 77.9762 9.02527C77.7522 8.79245 77.4824 8.60852 77.1839 8.48507C76.8853 8.36161 76.5644 8.30132 76.2414 8.30797C75.5571 8.30797 74.9792 8.54742 74.5067 9.02527C74.0353 9.50418 73.7979 10.1151 73.7979 10.8579C73.7979 11.6008 74.0353 12.2116 74.5067 12.6905ZM80.6762 14.0507V7.66516H81.6744L84.7767 12.632H84.8129L84.7767 11.4017V7.66516H85.5983V14.0507H84.7405L81.4946 8.84222H81.4595L81.4935 10.0725V14.0507H80.6762Z" stroke="white" stroke-width="0.172857" stroke-miterlimit="10"/>
<path fill-rule="evenodd" clip-rule="evenodd" d="M27.7617 15.3621L15.5004 8.25186C15.0228 7.96514 14.4761 7.81393 13.919 7.81445C12.7249 7.81445 11.6766 8.53708 11.1732 9.54812L11.2647 9.63964L22.3755 20.7483L27.7617 15.3621ZM10.8603 10.7411C10.8582 10.7862 10.8571 10.8312 10.8571 10.8763V32.1272C10.8571 32.1719 10.8571 32.2177 10.8603 32.2624L21.6231 21.5007L10.8603 10.7401V10.7411ZM11.1732 33.4544C11.6766 34.4654 12.7259 35.1891 13.919 35.1891C14.4841 35.1891 15.0151 35.0358 15.4717 34.7666L15.5079 34.7453L27.7829 27.6606L22.3766 22.2542L11.2658 33.3628L11.1732 33.4544ZM28.7376 27.1093L33.7364 24.2252C34.2224 23.9642 34.6289 23.5767 34.9128 23.1037C35.1968 22.6307 35.3477 22.0897 35.3495 21.538C35.3514 20.9863 35.2041 20.4444 34.9234 19.9695C34.6426 19.4946 34.2387 19.1044 33.7544 18.8401L33.7438 18.8326L28.7152 15.9166L23.1268 21.5007L28.7376 27.1093Z" fill="white"/>
<path d="M138.598 0.74707H5.56672C2.92176 0.74707 0.777592 2.89123 0.777592 5.53619V37.4637C0.777592 40.1087 2.92176 42.2528 5.56672 42.2528H138.598C141.243 42.2528 143.387 40.1087 143.387 37.4637V5.53619C143.387 2.89123 141.243 0.74707 138.598 0.74707Z" stroke="#737373" stroke-width="0.864286"/>
</g>
<defs>
<clipPath id="clip0_830_75652">
<rect width="143.674" height="42.57" fill="white" transform="translate(0.245453 0.214844)"/>
</clipPath>
</defs>
</svg>
